<svg height="512pt" viewBox="0 0 512 512" width="512pt" xmlns="http://www.w3.org/2000/svg"><path d="m290.132812 8.535156h170.667969c23.5625 0 42.664063 19.101563 42.664063 42.664063v119.46875c0 23.5625-19.101563 42.664062-42.664063 42.664062h-170.667969c-23.5625 0-42.667968-19.101562-42.667968-42.664062v-119.46875c0-23.5625 19.105468-42.664063 42.667968-42.664063zm0 0" fill="#cad9fc"/><path d="m290.132812 8.535156h145.066407c23.566406 0 42.667969 19.101563 42.667969 42.664063v119.46875c0 23.5625-19.101563 42.664062-42.667969 42.664062h-145.066407c-23.5625 0-42.667968-19.101562-42.667968-42.664062v-119.46875c0-23.5625 19.105468-42.664063 42.667968-42.664063zm0 0" fill="#e8edfc"/><path d="m315.734375 204.800781-8.535156 68.265625 93.867187-68.265625" fill="#e8edfc"/><path d="m324.265625 110.933594c0 9.425781-7.640625 17.066406-17.066406 17.066406s-17.066407-7.640625-17.066407-17.066406c0-9.425782 7.640626-17.066406 17.066407-17.066406s17.066406 7.640624 17.066406 17.066406zm0 0" fill="#e8edfc"/><path d="m392.535156 110.933594c0 9.425781-7.644531 17.066406-17.070312 17.066406-9.425782 0-17.066406-7.640625-17.066406-17.066406 0-9.425782 7.640624-17.066406 17.066406-17.066406 9.425781 0 17.070312 7.640624 17.070312 17.066406zm0 0" fill="#e8edfc"/><path d="m460.800781 110.933594c0 9.425781-7.640625 17.066406-17.066406 17.066406s-17.066406-7.640625-17.066406-17.066406c0-9.425782 7.640625-17.066406 17.066406-17.066406s17.066406 7.640624 17.066406 17.066406zm0 0" fill="#e8edfc"/><path d="m247.464844 51.199219v119.46875c0 23.5625 19.105468 42.664062 42.667968 42.664062h24.535157l-7.46875 59.734375 28.160156-20.480468 4.90625-39.253907h-24.53125c-23.566406 0-42.667969-19.101562-42.667969-42.664062v-119.46875c0-23.5625 19.101563-42.664063 42.667969-42.664063h-25.601563c-23.5625 0-42.667968 19.101563-42.667968 42.664063zm0 0" fill="#fff"/><g fill="#428dff"><path d="m8.535156 401.066406c-4.714844 0-8.535156-3.820312-8.535156-8.53125v-17.070312c0-4.710938 3.820312-8.53125 8.535156-8.53125 4.710938 0 8.53125 3.820312 8.53125 8.53125v17.070312c0 4.710938-3.820312 8.53125-8.53125 8.53125zm0 0"/><path d="m34.132812 409.601562c-4.710937 0-8.53125-3.820312-8.53125-8.535156v-34.132812c0-4.714844 3.820313-8.535156 8.53125-8.535156 4.714844 0 8.535157 3.820312 8.535157 8.535156v34.132812c0 4.714844-3.820313 8.535156-8.535157 8.535156zm0 0"/><path d="m136.535156 409.601562c-4.714844 0-8.535156-3.820312-8.535156-8.535156v-34.132812c0-4.714844 3.820312-8.535156 8.535156-8.535156 4.710938 0 8.53125 3.820312 8.53125 8.535156v34.132812c0 4.714844-3.820312 8.535156-8.53125 8.535156zm0 0"/><path d="m68.265625 426.667969c-4.710937 0-8.53125-3.820313-8.53125-8.535157v-68.265624c0-4.714844 3.820313-8.535157 8.53125-8.535157 4.714844 0 8.535156 3.820313 8.535156 8.535157v68.265624c0 4.714844-3.820312 8.535157-8.535156 8.535157zm0 0"/><path d="m102.398438 426.667969c-4.710938 0-8.53125-3.820313-8.53125-8.535157v-68.265624c0-4.714844 3.820312-8.535157 8.53125-8.535157 4.714843 0 8.535156 3.820313 8.535156 8.535157v68.265624c0 4.714844-3.820313 8.535157-8.535156 8.535157zm0 0"/><path d="m170.667969 443.734375c-4.714844 0-8.535157-3.820313-8.535157-8.535156v-102.398438c0-4.714843 3.820313-8.535156 8.535157-8.535156 4.710937 0 8.53125 3.820313 8.53125 8.535156v102.398438c0 4.714843-3.820313 8.535156-8.53125 8.535156zm0 0"/><path d="m204.800781 460.800781c-4.714843 0-8.535156-3.820312-8.535156-8.535156v-136.53125c0-4.714844 3.820313-8.535156 8.535156-8.535156 4.710938 0 8.53125 3.820312 8.53125 8.535156v136.53125c0 4.714844-3.820312 8.535156-8.53125 8.535156zm0 0"/><path d="m238.933594 512c-4.714844 0-8.535156-3.820312-8.535156-8.535156v-238.929688c0-4.714844 3.820312-8.535156 8.535156-8.535156 4.710937 0 8.53125 3.820312 8.53125 8.535156v238.929688c0 4.714844-3.820313 8.535156-8.53125 8.535156zm0 0"/><path d="m503.464844 401.066406c-4.710938 0-8.53125-3.820312-8.53125-8.53125v-17.070312c0-4.710938 3.820312-8.53125 8.53125-8.53125 4.714844 0 8.535156 3.820312 8.535156 8.53125v17.070312c0 4.710938-3.820312 8.53125-8.535156 8.53125zm0 0"/><path d="m477.867188 409.601562c-4.714844 0-8.535157-3.820312-8.535157-8.535156v-34.132812c0-4.714844 3.820313-8.535156 8.535157-8.535156 4.710937 0 8.53125 3.820312 8.53125 8.535156v34.132812c0 4.714844-3.820313 8.535156-8.53125 8.535156zm0 0"/><path d="m375.464844 409.601562c-4.710938 0-8.53125-3.820312-8.53125-8.535156v-34.132812c0-4.714844 3.820312-8.535156 8.53125-8.535156 4.714844 0 8.535156 3.820312 8.535156 8.535156v34.132812c0 4.714844-3.820312 8.535156-8.535156 8.535156zm0 0"/><path d="m443.734375 426.667969c-4.714844 0-8.535156-3.820313-8.535156-8.535157v-68.265624c0-4.714844 3.820312-8.535157 8.535156-8.535157 4.710937 0 8.53125 3.820313 8.53125 8.535157v68.265624c0 4.714844-3.820313 8.535157-8.53125 8.535157zm0 0"/><path d="m409.601562 426.667969c-4.714843 0-8.535156-3.820313-8.535156-8.535157v-68.265624c0-4.714844 3.820313-8.535157 8.535156-8.535157 4.710938 0 8.53125 3.820313 8.53125 8.535157v68.265624c0 4.714844-3.820312 8.535157-8.53125 8.535157zm0 0"/><path d="m341.332031 443.734375c-4.710937 0-8.53125-3.820313-8.53125-8.535156v-102.398438c0-4.714843 3.820313-8.535156 8.53125-8.535156 4.714844 0 8.535157 3.820313 8.535157 8.535156v102.398438c0 4.714843-3.820313 8.535156-8.535157 8.535156zm0 0"/><path d="m307.199219 460.800781c-4.710938 0-8.53125-3.820312-8.53125-8.535156v-136.53125c0-4.714844 3.820312-8.535156 8.53125-8.535156 4.714843 0 8.535156 3.820312 8.535156 8.535156v136.53125c0 4.714844-3.820313 8.535156-8.535156 8.535156zm0 0"/><path d="m273.066406 512c-4.710937 0-8.53125-3.820312-8.53125-8.535156v-238.929688c0-4.714844 3.820313-8.535156 8.53125-8.535156 4.714844 0 8.535156 3.820312 8.535156 8.535156v238.929688c0 4.714844-3.820312 8.535156-8.535156 8.535156zm0 0"/></g><path d="m238.933594 170.667969v-119.46875h17.066406v119.46875zm0 0" fill="#fff"/><path d="m247.464844 128c-4.710938 0-8.53125 3.820312-8.53125 8.535156v34.132813h17.066406v-34.132813c0-4.714844-3.820312-8.535156-8.535156-8.535156zm0 0" fill="#428dff"/><path d="m256 51.199219h-17.066406v17.066406c0 4.714844 3.820312 8.535156 8.53125 8.535156 4.714844 0 8.535156-3.820312 8.535156-8.535156zm0 0" fill="#428dff"/><path d="m238.933594 102.398438c.03125 2.261718.917968 4.425781 2.472656 6.058593l1.28125 1.027344c.476562.320313.992188.578125 1.535156.765625.484375.246094 1.003906.417969 1.539063.511719.5625.097656 1.132812.152343 1.703125.171875 2.261718-.035156 4.425781-.917969 6.058594-2.476563.773437-.8125 1.382812-1.769531 1.792968-2.8125 1.289063-3.183593.585938-6.828125-1.792968-9.304687-.8125-.769532-1.769532-1.378906-2.8125-1.789063-1.027344-.4375-2.128907-.671875-3.246094-.683593-2.269532-.023438-4.453125.867187-6.058594 2.472656-1.605469 1.605468-2.496094 3.789062-2.472656 6.058594zm0 0" fill="#428dff"/><path d="m314.710938 221.867188h-24.578126c-28.265624-.027344-51.171874-22.933594-51.199218-51.199219 0-4.714844 3.820312-8.535157 8.53125-8.535157 4.714844 0 8.535156 3.820313 8.535156 8.535157 0 18.851562 15.28125 34.132812 34.132812 34.132812h24.578126c4.710937 0 8.53125 3.820313 8.53125 8.53125 0 4.714844-3.820313 8.535157-8.53125 8.535157zm0 0" fill="#428dff"/><path d="m460.800781 221.867188h-71.425781c-4.710938 0-8.53125-3.820313-8.53125-8.535157 0-4.710937 3.820312-8.53125 8.53125-8.53125h71.425781c18.851563 0 34.132813-15.28125 34.132813-34.132812v-119.46875c0-18.851563-15.28125-34.132813-34.132813-34.132813h-170.667969c-18.851562 0-34.132812 15.28125-34.132812 34.132813 0 4.714843-3.820312 8.535156-8.535156 8.535156-4.710938 0-8.53125-3.820313-8.53125-8.535156.027344-28.265625 22.933594-51.1718752 51.199218-51.199219h170.667969c28.265625.0273438 51.171875 22.933594 51.199219 51.199219v119.46875c-.027344 28.265625-22.933594 51.171875-51.199219 51.199219zm0 0" fill="#428dff"/><path d="m307.199219 281.601562c-2.445313-.003906-4.777344-1.054687-6.394531-2.886718-1.621094-1.835938-2.375-4.277344-2.070313-6.707032l8.535156-68.265624c.683594-4.582032 4.898438-7.785157 9.496094-7.210938 4.597656.578125 7.898437 4.714844 7.433594 9.328125l-6.085938 48.722656 77.9375-56.683593c3.8125-2.773438 9.148438-1.929688 11.917969 1.882812 2.773438 3.8125 1.929688 9.152344-1.882812 11.921875l-93.867188 68.265625c-1.460938 1.0625-3.214844 1.632812-5.019531 1.632812zm0 0" fill="#428dff"/><path d="m307.199219 136.535156c-14.136719 0-25.597657-11.464844-25.597657-25.601562 0-14.140625 11.460938-25.601563 25.597657-25.601563 14.140625 0 25.601562 11.460938 25.601562 25.601563 0 14.136718-11.460937 25.601562-25.601562 25.601562zm0-34.136718c-4.710938 0-8.53125 3.820312-8.53125 8.535156 0 4.710937 3.820312 8.53125 8.53125 8.53125 4.714843 0 8.535156-3.820313 8.535156-8.53125 0-4.714844-3.820313-8.535156-8.535156-8.535156zm0 0" fill="#428dff"/><path d="m375.464844 136.535156c-14.136719 0-25.597656-11.464844-25.597656-25.601562 0-14.140625 11.460937-25.601563 25.597656-25.601563 14.140625 0 25.601562 11.460938 25.601562 25.601563 0 14.136718-11.460937 25.601562-25.601562 25.601562zm0-34.136718c-4.710938 0-8.53125 3.820312-8.53125 8.535156 0 4.710937 3.820312 8.53125 8.53125 8.53125 4.714844 0 8.535156-3.820313 8.535156-8.53125 0-4.714844-3.820312-8.535156-8.535156-8.535156zm0 0" fill="#428dff"/><path d="m443.734375 136.535156c-14.140625 0-25.601563-11.464844-25.601563-25.601562 0-14.140625 11.460938-25.601563 25.601563-25.601563 14.136719 0 25.597656 11.460938 25.597656 25.601563 0 14.136718-11.460937 25.601562-25.597656 25.601562zm0-34.136718c-4.714844 0-8.535156 3.820312-8.535156 8.535156 0 4.710937 3.820312 8.53125 8.535156 8.53125 4.710937 0 8.53125-3.820313 8.53125-8.53125 0-4.714844-3.820313-8.535156-8.53125-8.535156zm0 0" fill="#428dff"/></svg>